<svg xmlns="http://www.w3.org/2000/svg" width="8.433" height="9.482" viewBox="0 0 8.433 9.482">
  <g id="fi-rr-angle-double-right" transform="translate(-0.828)">
    <path id="Path_10564" data-name="Path 10564" d="M11.223,9.482a.4.4,0,0,1-.279-.674l3.229-3.229a1.185,1.185,0,0,0,0-1.676L10.944.674A.4.4,0,1,1,11.5.116l3.229,3.229a1.976,1.976,0,0,1,0,2.793L11.5,9.367A.4.4,0,0,1,11.223,9.482Z" transform="translate(-6.049 0)" fill="#58ca8c"/>
    <path id="Path_10565" data-name="Path 10565" d="M1.223,9.482a.4.4,0,0,1-.279-.674L4.731,5.021a.4.4,0,0,0,0-.559L.944.674A.4.4,0,1,1,1.5.116L5.29,3.9a1.185,1.185,0,0,1,0,1.676L1.5,9.367A.4.4,0,0,1,1.223,9.482Z" transform="translate(0 0)" fill="#58ca8c"/>
  </g>
</svg>
