<svg xmlns="http://www.w3.org/2000/svg" width="38.311" height="43.993" viewBox="0 0 38.311 43.993">
    <g id="idea" transform="translate(-33.066)">
        <path id="Path_6042" data-name="Path 6042" d="M126.452,103.664a10.32,10.32,0,0,1,3.116-4.766,12.52,12.52,0,0,0,4.491-9.623,12.65,12.65,0,1,0-20.8,9.623,9.834,9.834,0,0,1,3.208,4.766Z" transform="translate(-69.19 -70.028)" fill="#ffd15c"/>
        <path id="Path_6043" data-name="Path 6043" d="M202.75,231.748h.825l-3.666-13.656h.275a1.809,1.809,0,0,0,1.283-.55.886.886,0,0,1,1.283,0,1.566,1.566,0,0,0,2.383,0,.832.832,0,0,1,.642-.275.991.991,0,0,1,.642.275,1.664,1.664,0,0,0,1.283.55h.275L204.4,231.748h.825l3.758-14.3c0-.183,0-.367-.183-.458a.4.4,0,0,0-.458.092.792.792,0,0,1-.55.275,1.219,1.219,0,0,1-.733-.275,1.566,1.566,0,0,0-2.383,0,.886.886,0,0,1-1.283,0,1.478,1.478,0,0,0-1.191-.55h0a1.478,1.478,0,0,0-1.192.55,1.041,1.041,0,0,1-.733.275.653.653,0,0,1-.55-.275.4.4,0,0,0-.458-.092.335.335,0,0,0-.183.458Z" transform="translate(-151.721 -197.929)" fill="#fff"/>
        <g id="Group_1381" data-name="Group 1381" transform="translate(47.272 33.545)">
            <path id="Path_6044" data-name="Path 6044" d="M222.933,489.6a3.059,3.059,0,0,0,5.682,0Z" transform="translate(-220.825 -481.076)" fill="#344a5e"/>
            <path id="Path_6045" data-name="Path 6045" d="M206.74,399.015H200.05a1.643,1.643,0,0,1-1.65-1.65V390.4h9.99v6.966A1.643,1.643,0,0,1,206.74,399.015Z" transform="translate(-198.4 -390.4)" fill="#344a5e"/>
        </g>
        <g id="Group_1382" data-name="Group 1382" transform="translate(46.264 35.011)">
            <path id="Path_6046" data-name="Path 6046" d="M197.574,409.483h-9.9a1.017,1.017,0,0,1-1.008-1.008h0a1.017,1.017,0,0,1,1.008-1.008h9.9a1.017,1.017,0,0,1,1.008,1.008h0A1.017,1.017,0,0,1,197.574,409.483Z" transform="translate(-186.667 -407.467)" fill="#415a6b"/>
            <path id="Path_6047" data-name="Path 6047" d="M197.574,446.817h-9.9a1.017,1.017,0,0,1-1.008-1.008h0a1.017,1.017,0,0,1,1.008-1.008h9.9a1.017,1.017,0,0,1,1.008,1.008h0A1.017,1.017,0,0,1,197.574,446.817Z" transform="translate(-186.667 -441.593)" fill="#415a6b"/>
        </g>
        <g id="Group_1383" data-name="Group 1383" transform="translate(33.066)">
            <path id="Path_6048" data-name="Path 6048" d="M246.25,0a.918.918,0,0,0-.917.917V4.033a.918.918,0,0,0,.917.917.866.866,0,0,0,.917-.917V.917A.918.918,0,0,0,246.25,0Z" transform="translate(-227.094)" fill="#ffd15c"/>
            <path id="Path_6049" data-name="Path 6049" d="M96.492,62.142a.907.907,0,1,0-1.283,1.283l2.2,2.2a.907.907,0,0,0,1.283-1.283Z" transform="translate(-89.618 -56.551)" fill="#ffd15c"/>
            <path id="Path_6050" data-name="Path 6050" d="M37.1,212.267H33.983a.918.918,0,0,0-.917.917h0a.918.918,0,0,0,.917.917H37.1a.918.918,0,0,0,.917-.917h0A.986.986,0,0,0,37.1,212.267Z" transform="translate(-33.066 -194.028)" fill="#ffd15c"/>
            <path id="Path_6051" data-name="Path 6051" d="M97.407,337.342l-2.2,2.2a.907.907,0,0,0,1.283,1.283l2.2-2.2a.907.907,0,0,0-1.283-1.283Z" transform="translate(-89.617 -308.105)" fill="#ffd15c"/>
            <path id="Path_6052" data-name="Path 6052" d="M371.691,337.342a.907.907,0,0,0-1.283,1.283l2.2,2.2a.907.907,0,0,0,1.283-1.283Z" transform="translate(-341.171 -308.105)" fill="#ffd15c"/>
            <path id="Path_6053" data-name="Path 6053" d="M425.366,212.267H422.25a.918.918,0,0,0-.917.917h0a.918.918,0,0,0,.917.917h3.116a.919.919,0,0,0,.917-.917h0A.919.919,0,0,0,425.366,212.267Z" transform="translate(-387.972 -194.028)" fill="#ffd15c"/>
            <path id="Path_6054" data-name="Path 6054" d="M372.607,62.142l-2.2,2.2a.907.907,0,0,0,1.283,1.283l2.2-2.2a.907.907,0,0,0-1.283-1.283Z" transform="translate(-341.171 -56.551)" fill="#ffd15c"/>
        </g>
    </g>
</svg>
