<svg xmlns="http://www.w3.org/2000/svg" width="36" height="37.59" viewBox="0 0 38.31 40">
    <g id="Component_22_35" data-name="Component 22 – 35" transform="translate(0)">
        <path id="Path_5470" data-name="Path 5470" d="M-1810.925,629.2a15.187,15.187,0,0,1-.147-4.636c.032-.28.064-.561.119-.837a.187.187,0,0,0-.116-.237q-1.589-.914-3.174-1.835a1.02,1.02,0,0,1-.517-1.33,19.789,19.789,0,0,1,4.252-7.376,1,1,0,0,1,1.487-.245c1,.577,2.009,1.157,3,1.749a.345.345,0,0,0,.482-.033,14.771,14.771,0,0,1,4.4-2.534.337.337,0,0,0,.259-.388c-.01-1.2-.006-2.4,0-3.6a.98.98,0,0,1,.827-1.044,22.056,22.056,0,0,1,4.625-.466,22,22,0,0,1,4.037.46.988.988,0,0,1,.857,1.041c0,1.2.006,2.4-.005,3.6a.324.324,0,0,0,.247.372,15.228,15.228,0,0,1,4.207,2.355c.456.357.46.357.965.067.916-.527,1.829-1.06,2.746-1.587a1.041,1.041,0,0,1,1.5.252,18.867,18.867,0,0,1,2.991,4.347c.489.995.872,2.043,1.272,3.079a.952.952,0,0,1-.466,1.226q-1.6.935-3.215,1.854a.258.258,0,0,0-.148.317,14.834,14.834,0,0,1,.107,4.474q-.049.385-.107.768a.222.222,0,0,0,.127.264c1.048.6,2.092,1.2,3.137,1.808a1.05,1.05,0,0,1,.536,1.408,20.108,20.108,0,0,1-3.033,5.887c-.411.553-.879,1.064-1.331,1.585a.97.97,0,0,1-1.244.172q-1.6-.922-3.186-1.861a.265.265,0,0,0-.367.02,14.88,14.88,0,0,1-4.56,2.625c-.143.051-.159.14-.159.268q0,1.79,0,3.581a1.018,1.018,0,0,1-.953,1.173,20.126,20.126,0,0,1-4.3.441,19.4,19.4,0,0,1-4.292-.476,1.015,1.015,0,0,1-.815-1.086c0-1.2-.005-2.4,0-3.6a.275.275,0,0,0-.221-.313,14.637,14.637,0,0,1-4.493-2.6.254.254,0,0,0-.348-.033c-1.046.616-2.1,1.221-3.151,1.828a.989.989,0,0,1-1.34-.19,19.366,19.366,0,0,1-3.284-4.851c-.4-.858-.72-1.751-1.055-2.636a.974.974,0,0,1,.479-1.281c1.077-.625,2.158-1.244,3.237-1.865C-1811.011,629.258-1810.972,629.233-1810.925,629.2Zm15.234-10.534a7.711,7.711,0,0,0-7.724,7.744,7.732,7.732,0,0,0,7.651,7.672,7.7,7.7,0,0,0,7.765-7.458A7.721,7.721,0,0,0-1795.691,618.67Z" transform="translate(1814.849 -606.387)" fill="#ff372a" opacity="0.54"/>
        <path id="Path_5471" data-name="Path 5471" d="M-1507.7,926.4a5.157,5.157,0,0,1-5.229,5.129,5.155,5.155,0,0,1-5.09-5.195,5.153,5.153,0,0,1,5.214-5.117A5.149,5.149,0,0,1-1507.7,926.4Z" transform="translate(1532.005 -906.376)" fill="#ff372a"/>
    </g>
</svg>
