<svg xmlns="http://www.w3.org/2000/svg" width="43.153" height="43.145" viewBox="0 0 43.153 43.145">
    <g id="Group_1472" data-name="Group 1472" transform="translate(1533.108 529.044)">
        <path id="Path_5472" data-name="Path 5472" d="M-1527.659-253.982c.072-.434.167-1.033.27-1.63q.612-3.573,1.232-7.145a.329.329,0,0,0-.122-.336q-3.086-3.007-6.168-6.018a1.915,1.915,0,0,1-.484-2.245,1.833,1.833,0,0,1,1.477-1.128q4.186-.622,8.374-1.224a.746.746,0,0,0,.655-.464c1.219-2.506,2.457-5,3.69-7.5a1.971,1.971,0,0,1,1.484-1.167,1.849,1.849,0,0,1,1.984.921c.539,1.013,1.033,2.05,1.542,3.08q1.2,2.434,2.4,4.872a.36.36,0,0,0,.313.222q4.285.621,8.568,1.256a1.85,1.85,0,0,1,1.589,1.3,1.81,1.81,0,0,1-.437,1.979c-1.025,1.018-2.064,2.021-3.1,3.031-1.051,1.027-2.1,2.055-3.157,3.076a.409.409,0,0,0-.132.41q.482,2.772.957,5.546c.18,1.05.377,2.1.522,3.153a1.782,1.782,0,0,1-.779,1.755,1.778,1.778,0,0,1-1.931.2c-1.588-.8-3.156-1.645-4.731-2.472-1.044-.548-2.09-1.094-3.13-1.65a.311.311,0,0,0-.335.015q-3.792,2.006-7.586,4.009a1.946,1.946,0,0,1-1.841.1A1.924,1.924,0,0,1-1527.659-253.982Z" transform="translate(0 -234.049)" fill="#ffb721"/>
        <path id="Path_5473" data-name="Path 5473" d="M-1088.551-529.043a.546.546,0,0,1,.558.386c.267.633.525,1.27.79,1.9.288.688.571,1.377.878,2.056a.64.64,0,0,0,.33.252c1.251.528,2.507,1.046,3.76,1.57a.565.565,0,0,1,.386.759.9.9,0,0,1-.428.4c-1.24.534-2.49,1.048-3.738,1.562a.629.629,0,0,0-.378.374c-.514,1.257-1.047,2.506-1.564,3.761a.624.624,0,0,1-.6.463.634.634,0,0,1-.594-.469c-.519-1.264-1.051-2.523-1.565-3.788a.57.57,0,0,0-.35-.337c-1.264-.519-2.526-1.045-3.788-1.568a.608.608,0,0,1-.441-.534.592.592,0,0,1,.439-.632c1.269-.528,2.537-1.057,3.809-1.577a.546.546,0,0,0,.331-.327c.52-1.273,1.05-2.542,1.577-3.811A.59.59,0,0,1-1088.551-529.043Z" transform="translate(-416.251 0)" fill="#ffb721" opacity="0.54"/>
        <path id="Path_5474" data-name="Path 5474" d="M-876.5-250.283c-.014-.205.179-.326.413-.423.982-.4,1.961-.818,2.947-1.213a.542.542,0,0,0,.325-.33c.408-.991.827-1.977,1.23-2.97a.508.508,0,0,1,.479-.386.517.517,0,0,1,.487.383c.414.989.833,1.976,1.239,2.968a.548.548,0,0,0,.327.33c.984.4,1.964.819,2.945,1.23a.858.858,0,0,1,.113.048.514.514,0,0,1,.309.464.455.455,0,0,1-.315.427q-1.017.428-2.035.854c-.347.145-.7.274-1.041.436a.634.634,0,0,0-.292.291c-.423.993-.829,1.992-1.24,2.989-.151.366-.45.5-.731.311a.618.618,0,0,1-.2-.263q-.645-1.5-1.275-3a.55.55,0,0,0-.322-.334c-1.014-.416-2.02-.854-3.031-1.28A.492.492,0,0,1-876.5-250.283Z" transform="translate(-624.266 -259.971)" fill="#ffb721" opacity="0.54"/>
    </g>
</svg>
